<svg width="209" height="132" viewBox="0 0 209 132" fill="none" xmlns="http://www.w3.org/2000/svg">
<path d="M88.8903 0.205308L72.203 17.6907C67.2066 19.1279 62.5694 21.7627 58.6506 25.3898L49.9641 33.4994C46.6331 36.6133 42.2898 38.3242 37.8159 38.3242H31.35V82.1233C38.0119 82.3286 44.3472 85.1687 49.0823 90.1303L60.708 102.312L62.9939 104.707L71.8111 113.946C73.8358 116.068 77.1667 116.068 79.1914 113.946C79.7466 113.364 80.1711 112.68 80.3997 111.961C81.3141 109.327 83.4367 107.342 86.0492 106.726C88.6617 106.11 91.4048 106.931 93.2989 108.95L96.8258 112.577C100.614 116.547 106.753 116.547 110.509 112.577C112.272 110.73 113.219 108.368 113.317 105.939C113.448 102.928 115.146 100.259 117.758 98.9585C120.371 97.6583 123.408 97.932 125.727 99.6771C128.796 101.97 133.074 101.662 135.817 98.7875C138.887 95.571 138.887 90.3698 135.817 87.1875L111.064 61.2503L99.373 72.5422C90.4578 81.1652 76.7748 81.302 67.6964 72.8502C57.3444 63.2007 57.1158 46.3654 67.1739 36.408L90.0659 13.7556C99.0137 4.9274 110.835 0 123.147 0C134.936 0 146.333 4.551 155.117 12.7291L164.947 21.8995H177.65H190.712H203.775C206.649 21.8995 209 24.3632 209 27.3744V98.5479C209 104.605 204.33 109.498 198.55 109.498H188.1C184.247 109.498 180.85 107.308 179.054 104.023H151.329C150.219 106.315 148.749 108.505 146.92 110.422C141.336 116.273 133.597 118.565 126.347 117.299C125.171 119.797 123.571 122.124 121.579 124.211C112.664 133.553 98.7198 134.477 88.7923 126.983C80.5956 134.1 68.3822 133.656 60.708 125.58L51.9234 116.341L49.6375 113.946L38.0119 101.764C36.2158 99.8824 33.8645 98.7874 31.35 98.5821C31.35 104.605 26.6475 109.498 20.9 109.498H10.45C4.66984 109.498 0 104.605 0 98.5479V27.3744C0 24.3632 2.35125 21.8995 5.225 21.8995H18.2875H31.35H37.8159C38.4691 21.8995 39.0895 21.66 39.5467 21.2152L48.2006 13.1397C57.3117 4.68787 69.0353 0 81.2161 0H84.5797C86.0166 0 87.4861 0.0684355 88.8903 0.205308ZM177.65 87.5982V38.3242H161.975C160.048 38.3242 158.187 37.5714 156.783 36.2369L144.733 25.0134C138.789 19.4701 131.115 16.4247 123.147 16.4247C114.852 16.4247 106.884 19.7438 100.842 25.6977L77.9505 48.3501C74.5869 51.7034 74.6522 57.3494 78.1137 60.5659C81.1508 63.406 85.7553 63.3376 88.727 60.4633L112.207 37.7425C115.375 34.6629 120.338 34.8682 123.277 38.2215C126.216 41.5749 126.02 46.7418 122.82 49.8215L122.559 50.0952L146.855 75.5534C150.121 78.9752 152.243 83.184 153.19 87.5639H177.65V87.5982ZM20.9 93.073C20.9 91.621 20.3495 90.2284 19.3696 89.2017C18.3898 88.175 17.0608 87.5982 15.675 87.5982C14.2892 87.5982 12.9602 88.175 11.9804 89.2017C11.0005 90.2284 10.45 91.621 10.45 93.073C10.45 94.5251 11.0005 95.9176 11.9804 96.9444C12.9602 97.9711 14.2892 98.5479 15.675 98.5479C17.0608 98.5479 18.3898 97.9711 19.3696 96.9444C20.3495 95.9176 20.9 94.5251 20.9 93.073ZM193.325 98.5479C194.711 98.5479 196.04 97.9711 197.02 96.9444C198 95.9176 198.55 94.5251 198.55 93.073C198.55 91.621 198 90.2284 197.02 89.2017C196.04 88.175 194.711 87.5982 193.325 87.5982C191.939 87.5982 190.61 88.175 189.63 89.2017C188.65 90.2284 188.1 91.621 188.1 93.073C188.1 94.5251 188.65 95.9176 189.63 96.9444C190.61 97.9711 191.939 98.5479 193.325 98.5479Z" fill="#D5B35F"/>
</svg>
