<svg width="140" height="119" viewBox="0 0 140 119" fill="none" xmlns="http://www.w3.org/2000/svg">
<path d="M95.6098 11.9C95.6098 5.2955 101.688 0 109.268 0C116.849 0 122.927 5.2955 122.927 11.9C122.927 18.5045 116.849 23.8 109.268 23.8C101.688 23.8 95.6098 18.5045 95.6098 11.9ZM122.927 119V83.3H140L122.654 37.9015C121.74 35.5317 119.997 33.4709 117.67 32.0088C115.342 30.5466 112.547 29.7567 109.678 29.75H108.859C105.987 29.7477 103.187 30.5342 100.858 31.9976C98.5283 33.4609 96.7876 35.5268 95.8829 37.9015L90.0098 53.2525C97.3854 56.8225 102.439 63.546 102.439 71.4V119H122.927ZM71.7073 56.525C77.3756 56.525 81.9512 52.5385 81.9512 47.6C81.9512 42.6615 77.3756 38.675 71.7073 38.675C66.039 38.675 61.4634 42.6615 61.4634 47.6C61.4634 52.5385 66.039 56.525 71.7073 56.525ZM23.9024 23.8C31.4829 23.8 37.561 18.5045 37.561 11.9C37.561 5.2955 31.4829 0 23.9024 0C16.322 0 10.2439 5.2955 10.2439 11.9C10.2439 18.5045 16.322 23.8 23.9024 23.8ZM37.561 119V77.35H47.8049V41.65C47.8049 35.105 41.6585 29.75 34.1463 29.75H13.6585C6.14634 29.75 0 35.105 0 41.65V77.35H10.2439V119H37.561ZM81.9512 119V95.2H88.7805V71.4C88.7805 66.521 84.1366 62.475 78.5366 62.475H64.8781C59.2781 62.475 54.6341 66.521 54.6341 71.4V95.2H61.4634V119H81.9512Z" fill="#D5B35F"/>
</svg>
