<svg width="168" height="119" viewBox="0 0 168 119" fill="none" xmlns="http://www.w3.org/2000/svg">
<path d="M155.077 19.8333H122.769V14.875C122.769 10.9299 120.727 7.14639 117.092 4.35679C113.456 1.56718 108.526 0 103.385 0H64.6154C59.4743 0 54.5437 1.56718 50.9084 4.35679C47.2731 7.14639 45.2308 10.9299 45.2308 14.875V19.8333H12.9231C9.49566 19.8333 6.20863 20.8781 3.78508 22.7379C1.36153 24.5976 0 27.1199 0 29.75V109.083C0 111.713 1.36153 114.236 3.78508 116.095C6.20863 117.955 9.49566 119 12.9231 119H155.077C158.504 119 161.791 117.955 164.215 116.095C166.638 114.236 168 111.713 168 109.083V29.75C168 27.1199 166.638 24.5976 164.215 22.7379C161.791 20.8781 158.504 19.8333 155.077 19.8333ZM58.1538 29.75H109.846V109.083H58.1538V29.75ZM58.1538 14.875C58.1538 13.56 58.8346 12.2988 60.0464 11.3689C61.2582 10.4391 62.9017 9.91667 64.6154 9.91667H103.385C105.098 9.91667 106.742 10.4391 107.954 11.3689C109.165 12.2988 109.846 13.56 109.846 14.875V19.8333H58.1538V14.875Z" fill="#D5B35F"/>
</svg>
