<svg width="161" height="121" viewBox="0 0 161 121" fill="none" xmlns="http://www.w3.org/2000/svg">
<path d="M160.958 60.37C160.958 64.6231 156.765 67.9547 152.013 67.9547H143.067L143.263 105.807C143.319 114.195 135.296 121 125.373 121H35.8088C25.9411 121 17.9184 114.219 17.9184 105.878V67.9547H8.94521C3.91353 67.9547 0 64.6468 0 60.37C0 58.2435 0.838613 56.3533 2.79538 54.6993L74.4688 1.89026C76.4256 0.236282 78.6619 0 80.6187 0C82.5754 0 84.8117 0.472564 86.489 1.65397L116.288 23.7936V15.122C116.288 10.9399 120.285 7.56102 125.233 7.56102H134.178C139.126 7.56102 143.123 10.9399 143.123 15.122V43.7122L157.883 54.6757C160.119 56.3296 161.237 58.2199 160.958 60.3464V60.37ZM69.3253 45.3661C65.6075 45.3661 62.6164 47.8944 62.6164 51.0369V69.9395C62.6164 73.082 65.6075 75.6102 69.3253 75.6102H91.6884C95.4062 75.6102 98.3973 73.082 98.3973 69.9395V51.0369C98.3973 47.8944 95.4062 45.3661 91.6884 45.3661H69.3253Z" fill="#D5B35F"/>
</svg>
